<svg width="65" height="65" viewBox="0 0 65 65" fill="none" xmlns="http://www.w3.org/2000/svg">
<path d="M44.0091 42.4961C42.5953 42.025 41.3624 41.6143 40.498 41.3262V38.3904C44.2655 36.2302 47.0857 32.5987 48.1698 28.2853H50.8318C52.4316 28.2853 53.9342 27.6624 55.0629 26.5322C56.1931 25.4025 56.8155 23.8999 56.8155 22.3011V18.2217C56.8155 16.6234 56.1931 15.1208 55.0639 13.9921C53.9342 12.8609 52.4311 12.2381 50.8318 12.2381H48.6568V12.1007C48.6568 5.42824 43.2285 0 36.5561 0H28.3929C21.7209 0 16.2922 5.42824 16.2922 12.1007V12.2381H14.1171C12.5178 12.2381 11.0147 12.8609 9.88647 13.9911C8.7558 15.1213 8.13343 16.6234 8.13343 18.2222V30.4603C8.13343 36.0091 12.6477 40.5233 18.1969 40.5233C19.2483 40.5233 20.1012 39.6709 20.1012 38.619C20.1012 37.5677 19.2483 36.7147 18.1969 36.7147C14.7479 36.7147 11.942 33.9094 11.942 30.4603V27.8776C12.6264 28.1444 13.3603 28.2853 14.1171 28.2853H16.7732C17.4744 31.0995 18.9274 33.6808 21.0316 35.7844C22.0655 36.8184 23.2156 37.6947 24.4514 38.4023V41.3262C23.587 41.6143 22.3537 42.0255 20.9398 42.4966C12.0601 45.4567 6.09375 53.7344 6.09375 63.0957C6.09375 64.1475 6.94622 65 7.99805 65H56.9514C58.0027 65 58.8557 64.1465 58.8557 63.0947C58.8557 53.7344 52.8894 45.4567 44.0091 42.4961ZM52.3701 16.6844C52.7808 17.095 53.0069 17.641 53.0069 18.2217V22.3011C53.0069 22.8823 52.7808 23.4283 52.3692 23.8399C51.959 24.2505 51.413 24.4767 50.8318 24.4767H48.6568V16.0467H50.8318C51.413 16.0467 51.959 16.2728 52.3701 16.6844ZM28.3934 3.80859H36.5561C41.1283 3.80859 44.8482 7.52842 44.8482 12.1007V16.3174H36.804C32.7321 16.3174 29.1982 13.5612 28.2059 9.61323C27.9996 8.76522 27.2384 8.15872 26.3557 8.15872C26.0596 8.15872 25.7685 8.22765 25.5037 8.35957L20.1702 11.0266C20.6983 6.96011 24.1846 3.80859 28.3934 3.80859ZM16.2922 24.4767H14.1171C13.5359 24.4767 12.9899 24.2505 12.5793 23.8389C12.1682 23.4283 11.942 22.8823 11.942 22.3016V18.2222C11.942 17.6415 12.1682 17.095 12.5803 16.6834C12.9899 16.2733 13.5359 16.0472 14.1171 16.0472H16.2922V24.4767ZM20.1007 24.3433V15.3197L25.279 12.7305C27.3098 17.1783 31.7695 20.126 36.804 20.126H44.8482V24.3413C44.8482 31.164 39.2974 36.7147 32.4727 36.7147C29.1685 36.7147 26.0616 35.4279 23.7244 33.0911C21.3876 30.7544 20.1007 27.648 20.1007 24.3433ZM32.4747 40.5233C33.9322 40.5233 35.345 40.3284 36.6895 39.9654V42.6582V42.6652V42.6984C36.6895 45.0227 34.7985 46.9131 32.4747 46.9131C30.1504 46.9131 28.26 45.0227 28.26 42.6984V42.6652C28.26 42.6627 28.26 42.6607 28.26 42.6582V39.9714C29.6173 40.3349 31.0311 40.5233 32.4747 40.5233ZM10.0025 61.1914C10.7365 54.2725 15.4303 48.3478 22.1439 46.1093C23.1655 45.7691 24.0923 45.4601 24.8545 45.2062C25.9103 48.4053 28.926 50.7217 32.4747 50.7217C36.0229 50.7217 39.0391 48.4053 40.0944 45.2062C40.8566 45.4601 41.7839 45.7691 42.805 46.1093C49.5187 48.3473 54.2125 54.272 54.9464 61.1914H10.0025Z" fill="#2E9ADB"/>
</svg>
