<svg width="65" height="65" viewBox="0 0 65 65" fill="none" xmlns="http://www.w3.org/2000/svg">
<g clip-path="url(#clip0_84_351)">
<path d="M64.2181 23.3161L52.6092 6.28607C51.7705 5.05488 50.3798 4.31982 48.8894 4.31982H16.1097C14.6193 4.31982 13.2286 5.05488 12.3901 6.28569L0.779736 23.3177C-0.399405 25.0518 -0.224972 27.3724 1.19297 28.9061L29.1894 59.2291C30.9708 61.166 34.0328 61.1608 35.807 59.2317L63.8051 28.9071C65.1706 27.43 65.4432 25.1175 64.2181 23.3161ZM17.6809 28L27.6014 51.8946L5.5401 28H17.6809ZM35.2452 8.12842L43.0109 24.1913H21.9879L29.7536 8.12842H35.2452ZM43.1944 28L32.4995 53.7596L21.8047 27.9999H43.1944V28ZM47.3181 28H59.4589L37.3976 51.8946L47.3181 28ZM49.4621 8.43095L60.2055 24.1914H47.2414L39.4757 8.12854H48.8895C49.1189 8.12842 49.3328 8.24141 49.4621 8.43095ZM15.5373 8.43057C15.6661 8.24141 15.88 8.12854 16.1096 8.12854H25.5234L17.7577 24.1914H4.79349L15.5373 8.43057Z" fill="#2E9ADB"/>
</g>
<defs>
<clipPath id="clip0_84_351">
<rect width="65" height="65" fill="white"/>
</clipPath>
</defs>
</svg>
