<svg width="38" height="64" viewBox="0 0 38 64" fill="none" xmlns="http://www.w3.org/2000/svg">
<path d="M23.3208 63.875H13.0517C11.3364 63.875 9.94112 62.4824 9.94112 60.7705V37.6533H3.94992C2.23466 37.6533 0.839355 36.2603 0.839355 34.5488V24.6431C0.839355 22.9312 2.23466 21.5386 3.94992 21.5386H9.94112V16.5781C9.94112 11.6597 11.4886 7.4751 14.4157 4.47754C17.356 1.46631 21.4651 -0.125 26.2987 -0.125L34.1305 -0.112305C35.8428 -0.109375 37.2356 1.2832 37.2356 2.99219V12.1895C37.2356 13.9014 35.8408 15.2939 34.126 15.2939L28.8531 15.2959C27.2449 15.2959 26.8354 15.6177 26.7479 15.7163C26.6035 15.8799 26.4318 16.3423 26.4318 17.6191V21.5381H33.7298C34.2792 21.5381 34.8115 21.6733 35.2689 21.9282C36.2557 22.4785 36.8692 23.519 36.8692 24.6436L36.8653 34.5493C36.8653 36.2603 35.47 37.6528 33.7547 37.6528H26.4318V60.7705C26.4318 62.4824 25.036 63.875 23.3208 63.875V63.875ZM13.7004 60.1231H22.672V35.9736C22.672 34.8306 23.604 33.9009 24.7488 33.9009H33.106L33.1094 25.2905H24.7484C23.6035 25.2905 22.672 24.3608 22.672 23.2178V17.6191C22.672 16.1533 22.8213 14.4863 23.9299 13.2334C25.2694 11.7188 27.3805 11.5439 28.8521 11.5439L33.4763 11.542V3.63867L26.2958 3.62695C18.5277 3.62695 13.7004 8.58984 13.7004 16.5781V23.2178C13.7004 24.3604 12.7689 25.2905 11.6241 25.2905H4.59865V33.9009H11.6241C12.7689 33.9009 13.7004 34.8306 13.7004 35.9736V60.1231ZM34.1231 3.63965H34.1236H34.1231Z" fill="url(#paint0_linear_84_1170)"/>
<defs>
<linearGradient id="paint0_linear_84_1170" x1="19.0375" y1="-0.124997" x2="-5.85516" y2="51.9836" gradientUnits="userSpaceOnUse">
<stop stop-color="#2E9ADB"/>
<stop offset="1" stop-color="#55B570"/>
</linearGradient>
</defs>
</svg>
