<svg width="40" height="64" viewBox="0 0 40 64" fill="none" xmlns="http://www.w3.org/2000/svg">
<path d="M33.75 0H6.25C3.14838 0 0.625 2.52338 0.625 5.625V58.375C0.625 61.4766 3.14838 64 6.25 64H33.75C36.8516 64 39.375 61.4766 39.375 58.375V5.625C39.375 2.52338 36.8516 0 33.75 0ZM24.8985 3.75L23.6485 7.5H16.3514L15.1014 3.75H24.8985ZM35.625 58.375C35.625 59.4089 34.7839 60.25 33.75 60.25H6.25C5.21613 60.25 4.375 59.4089 4.375 58.375V5.625C4.375 4.59113 5.21613 3.75 6.25 3.75H11.1485L13.2211 9.968C13.4765 10.7336 14.1929 11.25 15 11.25H25C25.807 11.25 26.5235 10.7336 26.7788 9.968L28.8515 3.75H33.75C34.7839 3.75 35.625 4.59113 35.625 5.625V58.375Z" fill="url(#paint0_linear_84_1193)"/>
<path d="M23.75 52.75H16.25C15.2145 52.75 14.375 53.5895 14.375 54.625C14.375 55.6605 15.2145 56.5 16.25 56.5H23.75C24.7855 56.5 25.625 55.6605 25.625 54.625C25.625 53.5895 24.7855 52.75 23.75 52.75Z" fill="url(#paint1_linear_84_1193)"/>
<g clip-path="url(#clip0_84_1193)">
<path d="M29.5264 39.1065L24.9282 34.5081C25.7095 33.2643 26.1629 31.7942 26.1629 30.2165C26.1629 25.7531 22.5446 22.1353 18.0813 22.1353C13.618 22.1353 10 25.7531 10 30.2165C10 34.6801 13.6179 38.2977 18.0813 38.2977C19.7982 38.2977 21.3885 37.7609 22.6971 36.8488L27.2405 41.3926C27.5562 41.7079 27.9701 41.865 28.3834 41.865C28.7973 41.865 29.2107 41.7079 29.5269 41.3926C30.1578 40.761 30.1578 39.7379 29.5264 39.1065ZM18.0813 35.6794C15.0645 35.6794 12.6187 33.2338 12.6187 30.2169C12.6187 27.2 15.0645 24.7541 18.0813 24.7541C21.0982 24.7541 23.5439 27.2 23.5439 30.2169C23.5439 33.2338 21.0982 35.6794 18.0813 35.6794Z" fill="url(#paint2_linear_84_1193)"/>
</g>
<defs>
<linearGradient id="paint0_linear_84_1193" x1="20" y1="2.99976e-06" x2="-3.90381" y2="53.2746" gradientUnits="userSpaceOnUse">
<stop stop-color="#2E9ADB"/>
<stop offset="1" stop-color="#55B570"/>
</linearGradient>
<linearGradient id="paint1_linear_84_1193" x1="20" y1="52.75" x2="19.6632" y2="56.4695" gradientUnits="userSpaceOnUse">
<stop stop-color="#2E9ADB"/>
<stop offset="1" stop-color="#55B570"/>
</linearGradient>
<linearGradient id="paint2_linear_84_1193" x1="20" y1="22.1353" x2="15.0668" y2="40.5429" gradientUnits="userSpaceOnUse">
<stop stop-color="#2E9ADB"/>
<stop offset="1" stop-color="#55B570"/>
</linearGradient>
<clipPath id="clip0_84_1193">
<rect width="20" height="20" fill="white" transform="translate(10 22)"/>
</clipPath>
</defs>
</svg>
