<svg width="40" height="64" viewBox="0 0 40 64" fill="none" xmlns="http://www.w3.org/2000/svg">
<path d="M31.25 25.6685C24.8363 19.9315 15.1635 19.9315 8.74997 25.6685C7.97822 26.3589 7.9121 27.5441 8.60247 28.316L8.60259 28.3161C9.29297 29.0879 10.4782 29.1539 11.25 28.4636L11.2501 28.4635C16.2383 24.0015 23.7617 24.0015 28.7501 28.4635C29.5218 29.1539 30.7071 29.0879 31.3975 28.316C32.0878 27.5442 32.0218 26.3589 31.25 25.6685Z" fill="url(#paint0_linear_84_1203)"/>
<path d="M25.8394 30.925C24.1661 29.5864 22.1444 28.8789 19.9922 28.8789C17.8591 28.8789 15.7819 29.6118 14.1432 30.9424C13.3394 31.5952 13.217 32.776 13.8697 33.5798L13.8699 33.5799C14.5226 34.3838 15.7035 34.5061 16.5072 33.8534C17.4937 33.0523 18.6987 32.6289 19.9921 32.6289C21.2836 32.6289 22.4954 33.0523 23.4966 33.8531C24.3052 34.5 25.4851 34.3689 26.132 33.5603C26.779 32.7518 26.6479 31.5719 25.8394 30.925Z" fill="url(#paint1_linear_84_1203)"/>
<path d="M20 40.125C21.0355 40.125 21.875 39.2855 21.875 38.25C21.875 37.2145 21.0355 36.375 20 36.375C18.9645 36.375 18.125 37.2145 18.125 38.25C18.125 39.2855 18.9645 40.125 20 40.125Z" fill="url(#paint2_linear_84_1203)"/>
<path d="M33.75 0H6.25C3.14838 0 0.625 2.52338 0.625 5.625V58.375C0.625 61.4766 3.14838 64 6.25 64H33.75C36.8516 64 39.375 61.4766 39.375 58.375V5.625C39.375 2.52338 36.8516 0 33.75 0ZM24.8985 3.75L23.6485 7.5H16.3514L15.1014 3.75H24.8985ZM35.625 58.375C35.625 59.4089 34.7839 60.25 33.75 60.25H6.25C5.21613 60.25 4.375 59.4089 4.375 58.375V5.625C4.375 4.59113 5.21613 3.75 6.25 3.75H11.1485L13.2211 9.968C13.4765 10.7336 14.1929 11.25 15 11.25H25C25.807 11.25 26.5235 10.7336 26.7788 9.968L28.8515 3.75H33.75C34.7839 3.75 35.625 4.59113 35.625 5.625V58.375Z" fill="url(#paint3_linear_84_1203)"/>
<path d="M23.75 52.75H16.25C15.2145 52.75 14.375 53.5895 14.375 54.625C14.375 55.6605 15.2145 56.5 16.25 56.5H23.75C24.7855 56.5 25.625 55.6605 25.625 54.625C25.625 53.5895 24.7855 52.75 23.75 52.75Z" fill="url(#paint4_linear_84_1203)"/>
<defs>
<linearGradient id="paint0_linear_84_1203" x1="20" y1="21.3657" x2="19.3485" y2="28.8846" gradientUnits="userSpaceOnUse">
<stop stop-color="#2E9ADB"/>
<stop offset="1" stop-color="#55B570"/>
</linearGradient>
<linearGradient id="paint1_linear_84_1203" x1="19.9966" y1="28.8789" x2="19.4004" y2="34.2062" gradientUnits="userSpaceOnUse">
<stop stop-color="#2E9ADB"/>
<stop offset="1" stop-color="#55B570"/>
</linearGradient>
<linearGradient id="paint2_linear_84_1203" x1="20" y1="36.375" x2="19.0513" y2="39.8673" gradientUnits="userSpaceOnUse">
<stop stop-color="#2E9ADB"/>
<stop offset="1" stop-color="#55B570"/>
</linearGradient>
<linearGradient id="paint3_linear_84_1203" x1="20" y1="2.99976e-06" x2="-3.90381" y2="53.2746" gradientUnits="userSpaceOnUse">
<stop stop-color="#2E9ADB"/>
<stop offset="1" stop-color="#55B570"/>
</linearGradient>
<linearGradient id="paint4_linear_84_1203" x1="20" y1="52.75" x2="19.6632" y2="56.4695" gradientUnits="userSpaceOnUse">
<stop stop-color="#2E9ADB"/>
<stop offset="1" stop-color="#55B570"/>
</linearGradient>
</defs>
</svg>
