<svg width="64" height="64" viewBox="0 0 64 64" fill="none" xmlns="http://www.w3.org/2000/svg">
<path d="M59.6969 17C59.0065 16.2282 57.8213 16.1621 57.0494 16.8525L57.0493 16.8526C56.2775 17.543 56.2114 18.7282 56.9018 19.5V19.5001C61.3638 24.4884 61.3638 32.0117 56.9018 37V37.0001C56.2114 37.7719 56.2775 38.9572 57.0493 39.6475L57.0494 39.6476C57.8212 40.338 59.0065 40.272 59.6969 39.5001C65.4339 33.0865 65.4339 23.4135 59.6969 17Z" fill="url(#paint0_linear_84_1225)"/>
<path d="M54.4225 22.3933C53.7696 21.5894 52.5888 21.4669 51.785 22.1198L51.7848 22.1199C50.981 22.7727 50.8586 23.9535 51.5113 24.7573C52.3125 25.7438 52.7358 26.9488 52.7358 28.2422C52.7358 29.5337 52.3125 30.7454 51.5116 31.7465C50.8647 32.5552 50.9958 33.735 51.8043 34.3819L51.8045 34.382C52.6131 35.0289 53.793 34.8978 54.4398 34.0893C55.7783 32.4162 56.486 30.3943 56.486 28.2423C56.486 26.1092 55.7531 24.0319 54.4225 22.3933Z" fill="url(#paint1_linear_84_1225)"/>
<path d="M16.691 39.6472C17.4629 38.9568 17.5289 37.7714 16.8386 36.9997V36.9995C12.3766 32.0113 12.3766 24.4879 16.8386 19.4997V19.4995C17.529 18.7278 17.4629 17.5424 16.6911 16.8522L16.691 16.852C15.9192 16.1617 14.7339 16.2276 14.0435 16.9995C8.30647 23.4131 8.30647 33.086 14.0435 39.4997C14.7339 40.2715 15.9192 40.3375 16.691 39.6472Z" fill="url(#paint2_linear_84_1225)"/>
<path d="M19.3174 34.1067C19.9703 34.9106 21.151 35.0331 21.9549 34.3802L21.955 34.3801C22.7589 33.7273 22.8813 32.5465 22.2285 31.7427C21.4274 30.7562 21.004 29.5512 21.004 28.2578C21.004 26.9663 21.4274 25.7546 22.2283 24.7535C22.8752 23.9448 22.744 22.765 21.9355 22.1181L21.9354 22.118C21.1268 21.4711 19.9469 21.6022 19.3 22.4107C17.9615 24.0838 17.2539 26.1057 17.2539 28.2577C17.2538 30.3908 17.9867 32.4681 19.3174 34.1067Z" fill="url(#paint3_linear_84_1225)"/>
<path d="M49.375 38.875H48.0695C46.8774 36.1356 46.25 33.1463 46.25 30.1599V28.25C46.25 23.7226 43.024 19.9347 38.75 19.0636V5.625C38.75 2.52338 36.2266 0 33.125 0H5.625C2.52338 0 0 2.52338 0 5.625V58.375C0 61.4766 2.52338 64 5.625 64H33.125C36.2266 64 38.75 61.4766 38.75 58.375V49.8025C40.9324 49.0285 42.5 46.9444 42.5 44.5V42.625H49.375C50.4105 42.625 51.25 41.7855 51.25 40.75C51.25 39.7145 50.4105 38.875 49.375 38.875ZM24.2735 3.75L23.0235 7.5H15.7264L14.4764 3.75H24.2735ZM35 58.375C35 59.4089 34.1589 60.25 33.125 60.25H5.625C4.59113 60.25 3.75 59.4089 3.75 58.375V5.625C3.75 4.59113 4.59113 3.75 5.625 3.75H10.5235L12.5961 9.968C12.8515 10.7336 13.5679 11.25 14.375 11.25H24.375C25.1821 11.25 25.8985 10.7336 26.1537 9.968L28.2265 3.75H33.125C34.1589 3.75 35 4.59113 35 5.625V19.0636C30.726 19.9346 27.5 23.7226 27.5 28.25V30.1599C27.5 33.1463 26.8726 36.1357 25.6805 38.875H24.375C23.3395 38.875 22.5 39.7145 22.5 40.75C22.5 41.7855 23.3395 42.625 24.375 42.625H31.25V44.5C31.25 46.9444 32.8176 49.0285 35 49.8025V58.375ZM38.75 44.5C38.75 45.5339 37.9089 46.375 36.875 46.375C35.8411 46.375 35 45.5339 35 44.5V42.625H38.75V44.5ZM29.7157 38.875C30.7244 36.0874 31.25 33.1221 31.25 30.1599V28.25C31.25 25.1484 33.7734 22.625 36.875 22.625C39.9766 22.625 42.5 25.1484 42.5 28.25V30.1599C42.5 33.1221 43.0256 36.0874 44.0342 38.875H29.7157Z" fill="url(#paint4_linear_84_1225)"/>
<path d="M23.125 52.75H15.625C14.5895 52.75 13.75 53.5895 13.75 54.625C13.75 55.6605 14.5895 56.5 15.625 56.5H23.125C24.1605 56.5 25 55.6605 25 54.625C25 53.5895 24.1605 52.75 23.125 52.75Z" fill="url(#paint5_linear_84_1225)"/>
<defs>
<linearGradient id="paint0_linear_84_1225" x1="60.212" y1="16.375" x2="48.4882" y2="30.1396" gradientUnits="userSpaceOnUse">
<stop stop-color="#2E9ADB"/>
<stop offset="1" stop-color="#55B570"/>
</linearGradient>
<linearGradient id="paint1_linear_84_1225" x1="53.7889" y1="21.7002" x2="47.7718" y2="30.8253" gradientUnits="userSpaceOnUse">
<stop stop-color="#2E9ADB"/>
<stop offset="1" stop-color="#55B570"/>
</linearGradient>
<linearGradient id="paint2_linear_84_1225" x1="13.5284" y1="16.3745" x2="1.80462" y2="30.1392" gradientUnits="userSpaceOnUse">
<stop stop-color="#2E9ADB"/>
<stop offset="1" stop-color="#55B570"/>
</linearGradient>
<linearGradient id="paint3_linear_84_1225" x1="19.951" y1="21.707" x2="13.9339" y2="30.8322" gradientUnits="userSpaceOnUse">
<stop stop-color="#2E9ADB"/>
<stop offset="1" stop-color="#55B570"/>
</linearGradient>
<linearGradient id="paint4_linear_84_1225" x1="25.625" y1="2.99976e-06" x2="6.15376" y2="57.3943" gradientUnits="userSpaceOnUse">
<stop stop-color="#2E9ADB"/>
<stop offset="1" stop-color="#55B570"/>
</linearGradient>
<linearGradient id="paint5_linear_84_1225" x1="19.375" y1="52.75" x2="19.0382" y2="56.4695" gradientUnits="userSpaceOnUse">
<stop stop-color="#2E9ADB"/>
<stop offset="1" stop-color="#55B570"/>
</linearGradient>
</defs>
</svg>
