<svg width="56" height="64" viewBox="0 0 56 64" fill="none" xmlns="http://www.w3.org/2000/svg">
<path d="M54.0918 14.0581C47.374 14.0581 41.9087 8.59277 41.9087 1.875C41.9087 0.839355 41.0688 0 40.0337 0H29.9917C28.9561 0 28.1167 0.839355 28.1167 1.875V43.0459C28.1167 46.9951 24.9038 50.208 20.9541 50.208C17.0049 50.208 13.792 46.9951 13.792 43.0459C13.792 39.0962 17.0049 35.8833 20.9541 35.8833C21.9897 35.8833 22.8291 35.0439 22.8291 34.0083V23.9663C22.8291 22.9312 21.9897 22.0913 20.9541 22.0913C9.3999 22.0913 0 31.4917 0 43.0459C0 54.6001 9.3999 64 20.9541 64C32.5083 64 41.9087 54.6001 41.9087 43.0459V24.8218C45.6406 26.8115 49.793 27.8501 54.0918 27.8501C55.1274 27.8501 55.9668 27.0107 55.9668 25.9751V15.9331C55.9668 14.8979 55.1274 14.0581 54.0918 14.0581ZM52.2168 24.0225C48.2139 23.6895 44.4126 22.291 41.1284 19.9287C40.5576 19.5176 39.8047 19.4609 39.1782 19.7822C38.5522 20.1025 38.1587 20.7471 38.1587 21.4507V43.0459C38.1587 52.5322 30.4404 60.25 20.9541 60.25C11.4678 60.25 3.75 52.5322 3.75 43.0459C3.75 34.1929 10.4717 26.8799 19.0791 25.9429V32.2944C13.9521 33.186 10.042 37.6675 10.042 43.0459C10.042 49.063 14.937 53.9585 20.9541 53.9585C26.9717 53.9585 31.8667 49.063 31.8667 43.0459V3.75H38.2681C39.127 11.04 44.9268 16.8398 52.2168 17.6987V24.0225Z" fill="url(#paint0_linear_84_1188)"/>
<defs>
<linearGradient id="paint0_linear_84_1188" x1="27.9834" y1="2.99976e-06" x2="9.851" y2="58.3669" gradientUnits="userSpaceOnUse">
<stop stop-color="#2E9ADB"/>
<stop offset="1" stop-color="#55B570"/>
</linearGradient>
</defs>
</svg>
