<svg width="84" height="48" viewBox="0 0 84 48" fill="none" xmlns="http://www.w3.org/2000/svg">
<path d="M76.0382 0.408631C75.8678 0.456631 75.7217 0.672631 75.7217 0.840631C75.7217 1.00863 75.5026 1.20063 75.2347 1.27263C74.9669 1.34463 74.5774 1.70463 74.3582 2.08863C74.1147 2.44863 73.4817 3.14463 72.9217 3.60063C71.4365 4.80063 71.0956 5.64063 71.0956 7.96863V9.91263L67.6626 13.3206L64.2539 16.7286L63.0852 16.6086C62.4278 16.5606 61.4782 16.6326 60.9913 16.8006C59.993 17.1366 58.1913 18.6006 58.1913 19.0806C58.1913 19.2486 58.0695 19.4406 57.9235 19.4886C57.753 19.5366 57.6313 20.2326 57.6313 21.2406C57.6069 22.7046 57.7043 23.0646 58.2887 23.9526C59.1895 25.2726 60.3095 25.9206 61.9408 26.0886C63.0608 26.2086 63.4991 26.1366 64.5704 25.6086C66.3721 24.7206 67.2 23.3526 67.2 21.2406V19.7046L70.6817 16.3446L74.1391 12.9606H75.8434C78.5704 12.9606 79.0817 12.7206 81.7356 10.2006C83.586 8.40063 84.0487 7.87263 83.8052 7.63263C83.6104 7.44063 82.3687 7.29663 80.4695 7.20063C78.6191 7.12863 77.3287 6.96063 77.1582 6.79263C76.9634 6.60063 76.8661 5.47263 76.8417 3.45663C76.8174 0.480632 76.72 0.120631 76.0382 0.408631Z" fill="url(#paint0_linear_84_1180)"/>
<path d="M58.7998 5.16043C57.8746 5.35243 56.3893 5.85643 55.5128 6.26443C54.6363 6.67243 53.6624 7.12843 53.3215 7.27243C52.7859 7.53643 51.252 8.83243 49.5963 10.4884C48.8172 11.2564 47.405 13.5124 47.1859 14.3284C47.0885 14.6884 47.2346 15.1684 47.5754 15.6484C47.9893 16.2724 48.3059 16.4644 49.0606 16.5124C50.3754 16.6324 51.0815 16.1764 51.7876 14.7604C53.7841 10.8964 59.7493 8.40043 64.6919 9.33643C66.2989 9.64843 67.4432 8.73643 67.4432 7.17643C67.4432 6.26443 67.1024 5.73643 66.1528 5.25643C65.3493 4.82443 60.7476 4.77643 58.7998 5.16043Z" fill="url(#paint1_linear_84_1180)"/>
<path d="M28.1459 11.6163C27.0016 12.5043 26.2955 14.9043 26.2955 17.9043C26.2955 19.9683 26.2468 20.1363 25.5407 21.1203C24.4451 22.6083 23.5929 23.2803 22.8868 23.2083C22.2781 23.1603 22.2781 23.1123 22.2051 20.7603C22.1564 19.4403 22.2537 17.3283 22.3998 16.0563C22.692 13.4643 22.5216 12.7203 21.499 12.2643C20.3303 11.7363 19.0642 12.0243 18.212 13.0563C17.9685 13.3443 17.6764 13.7043 17.5303 13.8723C17.3842 14.0403 17.3355 14.2803 17.4085 14.4003C17.5059 14.5443 17.4816 14.6403 17.3598 14.6163C16.8729 14.5443 16.5807 14.6643 16.459 15.0483C16.3616 15.2883 15.8259 15.9843 15.2659 16.6083C14.4624 17.4483 14.0729 17.7123 13.7077 17.6163C13.2694 17.4963 13.1964 17.2323 13.099 15.2403C12.9529 12.7443 12.5877 11.8803 11.565 11.6163C11.2242 11.5443 10.6398 11.5923 10.2746 11.7363C9.64157 12.0003 8.32679 13.6803 7.93722 14.7363C7.86418 14.9763 7.42592 15.7203 7.01201 16.3683C6.37896 17.3283 6.11114 17.5203 5.62418 17.4723C5.03983 17.4003 4.96679 17.2803 4.79635 15.7203C4.47983 13.2003 4.45548 13.0563 3.77375 12.7683C2.65375 12.2643 1.19288 13.2483 0.730267 14.8083C0.292006 16.1763 0.170267 20.3763 0.438093 24.0963C0.681571 27.6723 0.876354 28.1283 2.21548 28.4403C3.21375 28.6803 4.23635 27.6003 5.3807 25.1043C5.89201 23.9523 6.33027 22.8003 6.33027 22.5603C6.33027 22.3443 6.5494 21.8643 6.81722 21.5283C7.08505 21.1923 7.30418 20.8083 7.30418 20.6883C7.30418 20.1603 8.86244 19.9683 9.17896 20.4483C9.27635 20.6163 9.32505 21.9603 9.3007 23.4483C9.17896 27.1683 9.64157 28.0563 11.7111 28.0803C12.6607 28.0803 13.9998 26.3283 14.4381 24.4563C14.5355 24.0963 14.9251 23.1123 15.3146 22.2243C16.1424 20.4483 16.8972 19.9923 17.7737 20.7603C18.1877 21.1443 18.2607 21.5043 18.2607 23.5203C18.2607 24.7923 18.3824 26.1603 18.5042 26.5443C18.8694 27.4803 19.7946 28.1283 21.0851 28.2723C22.3998 28.4163 23.812 27.6483 25.1511 26.0643C25.6624 25.4643 26.2224 24.9603 26.4172 24.9603C26.612 24.9603 27.1477 25.5363 27.6103 26.2563C29.3146 28.8963 31.2868 29.5203 33.3077 28.0803C33.8677 27.6723 34.3303 27.2643 34.3303 27.1683C34.3303 27.0483 34.5737 26.7123 34.8416 26.4243C35.4746 25.7763 35.7911 26.0643 35.7911 27.2883C35.7911 28.0803 35.4746 28.5123 34.2329 29.4003C31.3598 31.4643 28.9981 33.9843 27.9755 36.1203C27.1477 37.8003 27.1477 41.1363 27.9511 42.7443C28.9007 44.6163 31.1651 46.6083 33.5268 47.6163L34.5494 48.0723L35.6694 47.4243C37.0816 46.6083 37.8364 45.4323 38.3477 43.3203C38.5911 42.3843 38.859 41.2563 38.9807 40.8003C39.0781 40.3443 39.2972 38.8803 39.4433 37.5603C39.6137 36.2403 39.8329 34.6323 39.9546 34.0083C40.0764 33.3843 40.1737 32.4003 40.1737 31.8243C40.1737 30.4563 41.099 29.5443 43.5094 28.5603C45.5546 27.7203 46.2364 27.7443 46.9181 28.7043C47.1616 29.0403 47.5268 29.5203 47.7216 29.7363C47.9164 29.9763 48.1111 30.3123 48.1598 30.5043C48.4277 31.6563 51.252 34.3683 53.6137 35.7603C56.9981 37.7523 60.7233 38.4723 64.8624 37.9443C66.8103 37.6803 68.8311 37.1043 69.1477 36.7203C69.2207 36.6483 69.7807 36.3363 70.3894 36.0723C70.9981 35.7843 71.6311 35.4003 71.8016 35.1843C71.9964 34.9683 72.2642 34.8003 72.4103 34.8003C72.8729 34.8003 75.5998 31.8963 76.6468 30.3123C77.1581 29.4963 77.9129 27.8643 78.3024 26.7123C78.9355 24.7923 79.0085 24.2883 79.0085 21.2883V17.9523L78.3268 17.3763C77.3772 16.5843 76.6224 16.4403 75.8433 16.9443C75.1129 17.4003 74.4068 18.6003 74.6503 18.9843C74.7233 19.1283 74.7964 20.2563 74.772 21.5043C74.772 23.8803 74.2607 25.8483 73.2624 27.4803C73.019 27.8643 72.7024 28.4163 72.5807 28.6803C72.2885 29.3523 69.659 31.7763 68.7337 32.2323C66.3477 33.4563 65.2033 33.7203 62.0868 33.6963C59.1894 33.6963 58.9703 33.6723 57.412 32.9523C54.2224 31.4883 52.372 29.7123 51.0816 26.8803C50.7407 26.1603 50.2294 24.9843 49.9129 24.3123C49.5964 23.5683 49.1337 22.9923 48.8659 22.8963C47.5755 22.4883 45.2624 22.8963 42.4137 24.0483C41.3181 24.4803 41.0746 24.5043 40.8798 24.2163C40.5877 23.7843 40.5877 20.2803 40.8798 19.3443C41.5859 17.0883 41.9511 15.0723 41.9511 13.8003C41.9268 12.5283 41.8537 12.3123 41.2451 11.8323C40.3442 11.1123 38.8346 11.2083 38.1772 12.0003C37.6903 12.5763 37.0816 14.4723 36.8624 15.9603C36.7894 16.4883 36.6433 17.1363 36.5216 17.4003C36.3998 17.6643 36.1807 18.4803 36.0103 19.2003C35.499 21.5043 34.5981 22.6803 33.0398 23.0403C31.6764 23.3283 31.2381 22.6803 30.9216 20.0163C30.6781 17.8083 30.7998 16.8723 31.4816 15.8163C31.6764 15.5043 31.8955 14.6883 31.9442 13.9923C32.1146 12.2883 31.5059 11.5443 29.8259 11.3763C28.9737 11.3043 28.4868 11.3763 28.1459 11.6163ZM35.1581 35.9043C35.1337 38.5203 34.7929 40.3923 34.3059 40.8483C33.7216 41.4003 33.5511 41.4003 32.9424 40.7283C31.8711 39.5763 31.7251 37.8723 32.5772 36.4803C33.1616 35.5443 34.6468 34.0563 34.939 34.1523C35.0851 34.2003 35.1824 34.9443 35.1581 35.9043Z" fill="url(#paint2_linear_84_1180)"/>
<defs>
<linearGradient id="paint0_linear_84_1180" x1="70.7465" y1="26.1387" x2="64.3081" y2="2.04822" gradientUnits="userSpaceOnUse">
<stop stop-color="#2E9ADB"/>
<stop offset="1" stop-color="#55B570"/>
</linearGradient>
<linearGradient id="paint1_linear_84_1180" x1="57.2997" y1="16.5308" x2="55.5312" y2="5.17551" gradientUnits="userSpaceOnUse">
<stop stop-color="#2E9ADB"/>
<stop offset="1" stop-color="#55B570"/>
</linearGradient>
<linearGradient id="paint2_linear_84_1180" x1="39.6527" y1="48.0723" x2="35.0707" y2="11.9258" gradientUnits="userSpaceOnUse">
<stop stop-color="#2E9ADB"/>
<stop offset="1" stop-color="#55B570"/>
</linearGradient>
</defs>
</svg>
