<svg width="64" height="64" viewBox="0 0 64 64" fill="none" xmlns="http://www.w3.org/2000/svg">
<path d="M63.4381 26.0241C63.2696 25.1397 62.4965 24.5 61.5962 24.5H32C30.9645 24.5 30.125 25.3395 30.125 26.375V37.625C30.125 38.6605 30.9645 39.5 32 39.5H47.1162C45.9765 41.793 44.3411 43.7775 42.3781 45.3319C42.2129 45.418 42.0577 45.5303 41.919 45.6689C41.9046 45.6833 41.8924 45.6989 41.8786 45.7136C39.0505 47.7906 35.6045 49 32 49C22.593 49 15 41.3366 15 32C15 22.6596 22.5971 15 32 15C35.5704 15 39.069 16.2116 42.118 18.504C42.8641 19.0651 43.9101 18.9916 44.5705 18.3311L52.5716 10.33C53.3492 9.55237 53.2932 8.27387 52.4504 7.56725C46.6294 2.6875 39.3667 0 32 0C23.4987 0 15.4757 3.34137 9.40862 9.4085C3.34125 15.4757 0 23.4989 0 32C0 40.5011 3.34125 48.5242 9.40862 54.5915C15.4757 60.6586 23.4987 64 32 64C40.5013 64 48.5242 60.6586 54.5914 54.5915C60.6587 48.5242 64 40.5011 64 32C64 29.9921 63.8109 27.9816 63.4381 26.0241V26.0241ZM32 3.75C37.8228 3.75 43.5811 5.6645 48.4215 9.17675L43.0283 14.5701C39.6498 12.393 35.8682 11.25 32 11.25C26.4991 11.25 21.2999 13.4199 17.3599 17.3599C15.8787 18.8411 14.6479 20.5004 13.6882 22.2866L8.19888 16.7973C13.2245 8.95663 22.0156 3.75 32 3.75V3.75ZM6.32387 20.2255L12.1315 26.0331C11.551 27.9475 11.25 29.9527 11.25 32C11.25 34.0473 11.551 36.0525 12.1315 37.9669L6.32387 43.7745C4.67275 40.1881 3.75 36.2 3.75 32C3.75 27.8 4.67275 23.8119 6.32387 20.2255V20.2255ZM8.19888 47.2028L13.6882 41.7134C14.6479 43.4996 15.8787 45.1589 17.3599 46.6401C21.2999 50.5801 26.4991 52.75 32 52.75C35.957 52.75 39.7531 51.6201 43.0689 49.4704L48.5085 54.9101C43.8616 58.2679 38.1582 60.25 32 60.25C22.0156 60.25 13.2245 55.0434 8.19888 47.2028V47.2028ZM51.409 52.5074L46.0401 47.1384C48.6388 44.6875 50.6085 41.5766 51.6764 38.1885C51.8559 37.6189 51.7532 36.9977 51.4001 36.5161C51.0469 36.0345 50.4854 35.7499 49.888 35.7499H33.875V28.2499H60.001C60.1664 29.489 60.25 30.7447 60.25 31.9999C60.25 40.0674 56.8503 47.355 51.409 52.5074V52.5074Z" fill="url(#paint0_linear_84_1175)"/>
<defs>
<linearGradient id="paint0_linear_84_1175" x1="32" y1="2.99976e-06" x2="15.8082" y2="59.6012" gradientUnits="userSpaceOnUse">
<stop stop-color="#2E9ADB"/>
<stop offset="1" stop-color="#55B570"/>
</linearGradient>
</defs>
</svg>
