<svg width="135" height="60" viewBox="0 0 135 60" fill="none" xmlns="http://www.w3.org/2000/svg">
<path d="M0.880973 56.0784V45.8824L19.4512 26.6667C21.3189 24.6797 22.6797 23.085 23.5335 21.8824C24.3873 20.6275 24.8142 19.3987 24.8142 18.1961C24.8142 16.8366 24.3606 15.7386 23.4534 14.902C22.5996 14.0654 21.3989 13.6471 19.8514 13.6471C16.5429 13.6471 14.0349 15.5556 12.3273 19.3725L0.000488281 12.6275C1.81482 8.49673 4.48296 5.35948 8.0049 3.21569C11.5268 1.0719 15.4223 0 19.6913 0C25.0276 0 29.5901 1.56863 33.3789 4.70588C37.221 7.79085 39.1421 12.0261 39.1421 17.4118C39.1421 20.6013 38.3683 23.5556 36.8208 26.2745C35.3266 28.9412 33.1121 31.7647 30.1771 34.7451L22.5729 42.5098H40.1026V56.0784H0.880973Z" fill="white"/>
<path d="M53.9552 57.1765C51.6073 57.1765 49.6062 56.3922 47.9519 54.8235C46.351 53.2026 45.5506 51.268 45.5506 49.0196C45.5506 46.7712 46.3777 44.8627 48.032 43.2941C49.6862 41.6732 51.6606 40.8627 53.9552 40.8627C56.2498 40.8627 58.1975 41.6732 59.7984 43.2941C61.4527 44.8627 62.2798 46.7712 62.2798 49.0196C62.2798 51.268 61.4527 53.2026 59.7984 54.8235C58.1975 56.3922 56.2498 57.1765 53.9552 57.1765Z" fill="white"/>
<path d="M88.6994 20.4706C94.1957 20.4706 98.7582 22.0392 102.387 25.1765C106.069 28.3137 107.91 32.7582 107.91 38.5098C107.91 44.4706 105.936 49.098 101.987 52.3922C98.0378 55.634 93.1285 57.2549 87.2586 57.2549C82.3492 57.2549 78.0802 56.2353 74.4515 54.1961C70.8228 52.1046 68.1814 48.9935 66.5271 44.8627L79.014 37.8824C80.188 41.6993 82.9362 43.6078 87.2586 43.6078C89.2863 43.6078 90.8339 43.1634 91.9011 42.2745C93.0217 41.3333 93.582 40.0784 93.582 38.5098C93.582 36.8889 93.0217 35.634 91.9011 34.7451C90.8339 33.8562 89.3664 33.4118 87.4987 33.4118H69.5688L71.8901 1.17647H104.868V14.5882H85.0974L84.6972 20.4706H88.6994Z" fill="white"/>
<path d="M135 48.3922C135 50.6928 134.253 52.5621 132.759 54C131.265 55.4118 129.317 56.2614 126.916 56.549V60H124.235V56.5882C121.993 56.4314 120.072 55.817 118.471 54.7451C116.87 53.6732 115.723 52.2222 115.029 50.3922L119.792 47.6863C120.646 49.7778 122.127 50.9673 124.235 51.2549V44.4706C124.208 44.4706 124.195 44.4706 124.195 44.4706L124.114 44.4314C123.181 44.0915 122.42 43.7908 121.833 43.5294C121.246 43.268 120.553 42.8889 119.752 42.3922C118.978 41.8954 118.365 41.3856 117.911 40.8627C117.484 40.3137 117.097 39.6209 116.75 38.7843C116.43 37.9477 116.27 37.0327 116.27 36.0392C116.27 33.7386 117.031 31.8954 118.551 30.5098C120.099 29.1242 121.993 28.3268 124.235 28.1176V24.7059H126.916V28.1961C130.545 28.6144 133.106 30.4575 134.6 33.7255L129.958 36.3922C129.317 34.8235 128.303 33.8693 126.916 33.5294V40.0784C129.397 41.0457 131.065 41.817 131.919 42.3922C133.973 43.8301 135 45.8301 135 48.3922ZM121.753 36.0784C121.753 36.6536 121.94 37.1634 122.313 37.6078C122.687 38.0261 123.327 38.4575 124.235 38.902V33.4118C123.434 33.5686 122.82 33.8824 122.394 34.3529C121.967 34.8235 121.753 35.3987 121.753 36.0784ZM126.916 51.1765C128.624 50.8105 129.477 49.8954 129.477 48.4314C129.477 47.7778 129.264 47.2288 128.837 46.7843C128.437 46.3399 127.797 45.9216 126.916 45.5294V51.1765Z" fill="white"/>
</svg>
