<svg width="150" height="60" viewBox="0 0 150 60" fill="none" xmlns="http://www.w3.org/2000/svg">
<path d="M41.782 1.23288V15.4521H28.014V58.7671H13.7685V15.4521H0.000488281V1.23288H41.782Z" fill="white"/>
<path d="M91.9012 51.3699C86.2773 57.1233 79.38 60 71.2094 60C63.0388 60 56.115 57.1233 50.438 51.3699C44.8141 45.5616 42.0021 38.4384 42.0021 30C42.0021 21.5616 44.8141 14.4658 50.438 8.71233C56.115 2.90411 63.0388 0 71.2094 0C79.38 0 86.2773 2.90411 91.9012 8.71233C97.5782 14.4658 100.417 21.5616 100.417 30C100.417 38.4384 97.5782 45.5616 91.9012 51.3699ZM60.4656 41.2603C63.3306 44.1644 66.9118 45.6164 71.2094 45.6164C75.5069 45.6164 79.0882 44.1644 81.9532 41.2603C84.8182 38.3014 86.2507 34.5479 86.2507 30C86.2507 25.4521 84.8182 21.726 81.9532 18.8219C79.0882 15.863 75.5069 14.3836 71.2094 14.3836C66.9118 14.3836 63.3306 15.863 60.4656 18.8219C57.6005 21.726 56.168 25.4521 56.168 30C56.168 34.5479 57.6005 38.3014 60.4656 41.2603Z" fill="white"/>
<path d="M150 1.23288V58.7671H135.755V15.4521H121.271V58.7671H107.025V1.23288H150Z" fill="white"/>
</svg>
