<svg width="350" height="60" viewBox="0 0 350 60" fill="none" xmlns="http://www.w3.org/2000/svg">
<path d="M50.2408 51.0811C44.5784 56.7568 37.634 59.5946 29.4075 59.5946C21.181 59.5946 14.2099 56.7568 8.49406 51.0811C2.83168 45.3513 0.000488281 38.3243 0.000488281 30C0.000488281 21.6757 2.83168 14.6757 8.49406 9C14.2099 3.27027 21.181 0.405405 29.4075 0.405405C37.634 0.405405 44.5784 3.27027 50.2408 9C55.9566 14.6757 58.8145 21.6757 58.8145 30C58.8145 38.3243 55.9566 45.3513 50.2408 51.0811ZM18.5902 41.1081C21.4748 43.973 25.0806 45.4054 29.4075 45.4054C33.7344 45.4054 37.3402 43.973 40.2248 41.1081C43.1094 38.1892 44.5517 34.4865 44.5517 30C44.5517 25.5135 43.1094 21.8378 40.2248 18.973C37.3402 16.0541 33.7344 14.5946 29.4075 14.5946C25.0806 14.5946 21.4748 16.0541 18.5902 18.973C15.7056 21.8378 14.2633 25.5135 14.2633 30C14.2633 34.4865 15.7056 38.1892 18.5902 41.1081Z" fill="white"/>
<path d="M119.635 14.3513C124.015 18.4054 126.205 23.6216 126.205 30C126.205 36.3784 124.015 41.6216 119.635 45.7297C115.254 49.7838 109.165 52.2973 101.366 53.2703V60H87.5836V53.2703C79.7845 52.2973 73.668 49.7838 69.2343 45.7297C64.8539 41.6216 62.6638 36.3784 62.6638 30C62.6638 23.6216 64.8539 18.4054 69.2343 14.3513C73.668 10.2432 79.7845 7.7027 87.5836 6.72973V0H101.366V6.72973C109.165 7.7027 115.254 10.2432 119.635 14.3513ZM77.0067 30C77.0067 35.6216 80.5323 38.9459 87.5836 39.973V19.7838C83.9511 20.3243 81.2802 21.4324 79.5708 23.1081C77.8614 24.7838 77.0067 27.0811 77.0067 30ZM101.366 39.973C104.998 39.4324 107.669 38.3513 109.378 36.7297C111.088 35.0541 111.943 32.8108 111.943 30C111.943 27.0811 111.088 24.7838 109.378 23.1081C107.669 21.4324 104.998 20.3243 101.366 19.7838V39.973Z" fill="white"/>
<path d="M186.382 14.3513C190.762 18.4054 192.953 23.6216 192.953 30C192.953 36.3784 190.762 41.6216 186.382 45.7297C182.002 49.7838 175.912 52.2973 168.113 53.2703V60H154.331V53.2703C146.532 52.2973 140.415 49.7838 135.982 45.7297C131.601 41.6216 129.411 36.3784 129.411 30C129.411 23.6216 131.601 18.4054 135.982 14.3513C140.415 10.2432 146.532 7.7027 154.331 6.72973V0H168.113V6.72973C175.912 7.7027 182.002 10.2432 186.382 14.3513ZM143.754 30C143.754 35.6216 147.28 38.9459 154.331 39.973V19.7838C150.698 20.3243 148.027 21.4324 146.318 23.1081C144.609 24.7838 143.754 27.0811 143.754 30ZM168.113 39.973C171.745 39.4324 174.416 38.3513 176.126 36.7297C177.835 35.0541 178.69 32.8108 178.69 30C178.69 27.0811 177.835 24.7838 176.126 23.1081C174.416 21.4324 171.745 20.3243 168.113 19.7838V39.973Z" fill="white"/>
<path d="M213.306 44.7568H235.02V58.3784H198.963V1.62162H234.62V15.1622H213.306V23.027H232.617V36.4054H213.306V44.7568Z" fill="white"/>
<path d="M263.639 1.62162C269.301 1.62162 274.055 3.48648 277.902 7.21621C281.748 10.9459 283.671 15.7027 283.671 21.4865C283.671 27.2703 281.748 32.027 277.902 35.7568C274.055 39.4865 269.301 41.3514 263.639 41.3514H256.187V58.3784H241.844V1.62162H263.639ZM263.639 27.5676C265.241 27.5676 266.577 27 267.645 25.8649C268.767 24.7297 269.328 23.2703 269.328 21.4865C269.328 19.7027 268.767 18.2703 267.645 17.1892C266.577 16.0541 265.241 15.4865 263.639 15.4865H256.187V27.5676H263.639Z" fill="white"/>
<path d="M289.263 58.3784V1.62162H303.606V18.6486H311.058C316.721 18.6486 321.475 20.5405 325.321 24.3243C329.167 28.0541 331.09 32.7838 331.09 38.5135C331.09 44.2973 329.167 49.0541 325.321 52.7838C321.475 56.5135 316.721 58.3784 311.058 58.3784H289.263ZM335.738 58.3784V1.62162H350.001V58.3784H335.738ZM303.606 44.5946H311.058C312.661 44.5946 313.996 44.027 315.065 42.8919C316.186 41.7568 316.747 40.2973 316.747 38.5135C316.747 36.7297 316.186 35.2973 315.065 34.2162C313.996 33.0811 312.661 32.5135 311.058 32.5135H303.606V44.5946Z" fill="white"/>
</svg>
