<svg width="100" height="100" viewBox="0 0 100 100" fill="none" xmlns="http://www.w3.org/2000/svg">
<g clip-path="url(#clip0_84_434)">
<path d="M3.00953 99.8051C3.00953 99.8051 49.9961 100 50.0002 100C50.7733 100 51.5154 99.6938 52.0633 99.1478C52.6144 98.5992 52.9242 97.8536 52.9242 97.076L52.9242 81.9273C54.0173 82.1427 55.0269 82.2612 55.8481 82.2612C60.685 82.2612 64.6201 78.3261 64.6201 73.4893C64.6201 68.6524 60.685 64.7174 55.8481 64.7174C55.0269 64.7174 54.0173 64.8359 52.9241 65.0513L52.9241 53.0214L68.7893 53.0214C70.8054 53.0214 72.2208 51.0224 71.5446 49.1187C70.838 47.1292 70.4682 45.1632 70.4682 44.2495C70.4682 42.6372 71.7799 41.3255 73.3922 41.3255C75.0045 41.3255 76.3162 42.6372 76.3162 44.2495C76.3162 45.1634 75.9466 47.1294 75.2399 49.1187C74.5651 51.0185 75.975 53.0214 77.9953 53.0214L96.9787 53.0214C98.5935 53.0214 99.9027 51.7123 99.9027 50.0975L99.9027 3.1189C99.9027 1.50643 98.5972 0.198242 96.9848 0.194931C96.9848 0.194931 3.02356 8.46944e-06 3.02161 8.46961e-06C2.24734 8.5373e-06 1.50445 0.307221 0.956107 0.854196C0.406402 1.40273 0.0976324 2.14738 0.0976325 2.92398C0.0976329 6.92769 0.0976404 92.8784 0.0976407 96.8811C0.0976409 98.4912 1.39939 99.7984 3.00953 99.8051ZM52.9241 22.1025L52.9241 5.95147L94.0547 6.03684L94.0548 47.1735L81.83 47.1735C82.0454 46.0803 82.1639 45.071 82.1639 44.2495C82.1639 39.4127 78.2288 35.4776 73.392 35.4776C68.5551 35.4776 64.6201 39.4127 64.6201 44.2495C64.6201 45.0708 64.7386 46.0803 64.954 47.1735L52.9241 47.1735L52.9241 31.3084C52.9241 29.2924 50.9253 27.8768 49.0214 28.553C47.0316 29.2598 45.0657 29.6296 44.1522 29.6296C42.5399 29.6296 41.2282 28.3179 41.2282 26.7057C41.2282 25.0934 42.5399 23.7817 44.1522 23.7817C45.0661 23.7817 47.0321 24.1513 49.0214 24.8579C50.9214 25.5326 52.9241 24.1228 52.9241 22.1025ZM5.94559 5.854L47.0762 5.93938L47.0762 18.2677C45.983 18.0523 44.9737 17.9337 44.1522 17.9337C39.3154 17.9337 35.3803 21.8688 35.3803 26.7057C35.3803 31.5425 39.3154 35.4776 44.1522 35.4776C44.9735 35.4776 45.9828 35.3591 47.0762 35.1435L47.0762 47.1735L35.0464 47.1735C35.2618 46.0803 35.3803 45.071 35.3803 44.2495C35.3803 39.4127 31.4452 35.4776 26.6084 35.4776C21.7715 35.4776 17.8364 39.4127 17.8364 44.2495C17.8364 45.061 17.952 46.0559 18.1625 47.1339L5.94559 47.0084L5.94559 5.854ZM5.94559 52.8567L21.9752 53.0213C24.0052 53.0429 25.4407 51.0339 24.7606 49.1187C24.054 47.1294 23.6844 45.1634 23.6844 44.2495C23.6844 42.6372 24.9961 41.3255 26.6084 41.3255C28.2206 41.3255 29.5323 42.6372 29.5323 44.2495C29.5323 45.1634 29.1627 47.1294 28.4561 49.1187C27.7813 51.0185 29.1912 53.0214 31.2115 53.0214L47.0762 53.0214L47.0762 68.8866C47.0762 70.9027 49.0752 72.3181 50.9789 71.6419C52.9684 70.9351 54.9343 70.5653 55.8481 70.5653C57.4604 70.5653 58.7721 71.877 58.7721 73.4893C58.7721 75.1016 57.4604 76.4133 55.8481 76.4133C54.9343 76.4133 52.9682 76.0437 50.9787 75.337C49.0795 74.6622 47.076 76.0717 47.076 78.0924L47.076 94.1398L5.9454 93.9692L5.94539 52.8567L5.94559 52.8567Z" fill="white"/>
</g>
<defs>
<clipPath id="clip0_84_434">
<rect width="100" height="100" fill="white"/>
</clipPath>
</defs>
</svg>
