<svg width="100" height="100" viewBox="0 0 100 100" fill="none" xmlns="http://www.w3.org/2000/svg">
<g clip-path="url(#clip0_84_378)">
<path d="M94.5465 5.45371C91.0297 1.93711 86.3537 0.000390625 81.3803 0.000390625L18.6199 0C8.35273 0.000585938 0 8.35352 0.000195313 18.6199L0 81.3805C0.000195313 91.6473 8.35312 100 18.6201 100H81.3803C91.6473 100 100 91.6473 100 81.3803V18.6201C100 13.6465 98.0633 8.97051 94.5465 5.45371ZM94.1406 81.3803C94.1406 88.4164 88.4164 94.1406 81.3803 94.1406H18.6201C11.584 94.1406 5.85957 88.4162 5.85938 81.3803L5.85957 18.6197C5.85938 11.584 11.5838 5.85977 18.6201 5.85938L81.3803 5.85977C84.7887 5.85977 87.9932 7.18691 90.4033 9.59688C92.8135 12.007 94.1406 15.2115 94.1406 18.6201V81.3803Z" fill="white"/>
<path d="M67.6038 42.4789C66.4599 41.335 64.6048 41.3348 63.4606 42.4789L52.9298 53.0102L52.9296 21.7578C52.9296 20.1398 51.6179 18.8281 49.9999 18.8281C48.3819 18.8281 47.0702 20.1398 47.0702 21.7578L47.0704 53.0107L36.5387 42.4793C35.3948 41.3352 33.5397 41.3352 32.3956 42.4793C31.2514 43.6234 31.2514 45.4783 32.3956 46.6225L47.9284 62.1549C48.4778 62.7045 49.2229 63.0131 49.9999 63.0131C50.7768 63.0131 51.5222 62.7043 52.0716 62.1549L67.604 46.6221C68.7479 45.4779 68.7479 43.623 67.6038 42.4789Z" fill="white"/>
<path d="M78.2424 75.3125H21.7581C20.1401 75.3125 18.8284 76.6242 18.8284 78.2422C18.8284 79.8602 20.1401 81.1719 21.7581 81.1719H78.2424C79.8604 81.1719 81.1721 79.8602 81.1721 78.2422C81.1721 76.624 79.8604 75.3125 78.2424 75.3125Z" fill="white"/>
</g>
<defs>
<clipPath id="clip0_84_378">
<rect width="100" height="100" fill="white"/>
</clipPath>
</defs>
</svg>
