<svg width="100" height="100" viewBox="0 0 100 100" fill="none" xmlns="http://www.w3.org/2000/svg">
<g clip-path="url(#clip0_84_421)">
<path d="M85.3555 14.6445C75.9115 5.20098 63.3555 0 50 0C36.6445 0 24.0885 5.20098 14.6445 14.6445C5.20098 24.0885 0 36.6445 0 50C0 63.3555 5.20098 75.9115 14.6445 85.3555C24.0885 94.799 36.6445 100 50 100C63.3555 100 75.9115 94.799 85.3555 85.3555C94.799 75.9115 100 63.3555 100 50C100 36.6445 94.799 24.0885 85.3555 14.6445ZM94.0426 47.0703H88.2732C87.7094 38.8963 84.533 31.2295 79.1312 25.0117L83.2143 20.9287C89.6379 28.2467 93.4102 37.3537 94.0426 47.0703ZM25.033 79.1102C31.241 84.4006 38.8969 87.5717 47.0703 88.2344V94.0426C37.3537 93.41 28.2467 89.6377 20.9289 83.2143L25.033 79.1102ZM52.9297 88.2727C61.1031 87.7086 68.7709 84.533 74.9883 79.1316L79.0711 83.2145C71.7533 89.6379 62.6463 93.4102 52.9297 94.0426V88.2727ZM72.9185 73.05C66.8518 79.1543 58.8248 82.5062 50.2875 82.5059C50.2002 82.5059 50.1113 82.5055 50.0236 82.5049C31.9439 82.3588 17.3518 67.7877 17.4951 50.0236C17.5656 41.2934 20.9701 33.099 27.0814 26.95C33.1482 20.8457 41.1752 17.4941 49.7125 17.4941C49.8 17.4941 49.8887 17.4945 49.9764 17.4951C58.7066 17.5656 66.901 20.9701 73.05 27.0814C79.2168 33.2104 82.5746 41.3412 82.5049 49.9764C82.4342 58.7066 79.0299 66.901 72.9185 73.05ZM74.967 20.8898C68.759 15.5992 61.1031 12.4283 52.9297 11.7656V5.95742C62.6463 6.59004 71.7533 10.3623 79.0711 16.7857L74.967 20.8898ZM47.0703 11.7273C38.8969 12.2914 31.2293 15.467 25.0117 20.8686L20.9289 16.7857C28.2467 10.3623 37.3537 6.58984 47.0703 5.95742V11.7273ZM16.7857 20.9289L20.8898 25.033C15.5992 31.241 12.4283 38.8969 11.7656 47.0703H5.95742C6.58984 37.3537 10.3621 28.2467 16.7857 20.9289ZM5.95742 52.9297H11.7268C12.2906 61.1037 15.467 68.7705 20.8687 74.9883L16.7857 79.0713C10.3621 71.7533 6.58984 62.6463 5.95742 52.9297ZM83.2143 79.0711L79.1102 74.967C84.4008 68.7588 87.5717 61.1031 88.2344 52.9297H94.0426C93.4102 62.6463 89.6379 71.7533 83.2143 79.0711Z" fill="white"/>
<path d="M54.6864 38.8103C53.6279 37.9619 52.5333 37.0847 51.3719 36.1289L50 35L48.6281 36.1289C47.4669 37.0847 46.3721 37.962 45.3133 38.8106C39.3259 43.6092 35 47.0763 35 52.2897C35 57.1006 38.6261 60.8883 43.3036 61.0281V65H56.1607V61.0281C56.2496 61.0308 56.339 61.0322 56.4286 61.0322C61.235 61.0322 65 57.1921 65 52.2897C65.0001 47.0763 60.674 43.609 54.6864 38.8103ZM56.4287 56.7999C55.8654 56.7999 55.3603 56.6989 54.885 56.4913L51.8751 55.176V60.7677H47.5894V55.7118L44.7811 56.6178C44.4066 56.7386 43.9996 56.7999 43.5716 56.7999C40.7879 56.7999 39.2859 54.4761 39.2859 52.2897C39.2859 49.0921 42.7581 46.3092 48.0141 42.0968C48.6599 41.5794 49.3189 41.0512 50.0001 40.4996C50.6813 41.051 51.3403 41.5792 51.9859 42.0966C57.2421 46.3091 60.7146 49.0921 60.7146 52.2897C60.7144 54.4761 59.2123 56.7999 56.4287 56.7999Z" fill="white"/>
</g>
<defs>
<clipPath id="clip0_84_421">
<rect width="100" height="100" fill="white"/>
</clipPath>
</defs>
</svg>
