<svg width="100" height="100" viewBox="0 0 100 100" fill="none" xmlns="http://www.w3.org/2000/svg">
<g clip-path="url(#clip0_84_444)">
<path d="M97.0703 7.21741H84.2377C84.2842 5.79605 84.3102 4.3663 84.3102 2.92969C84.3102 1.31149 82.9979 0 81.3805 0H18.6195C17.0021 0 15.6898 1.31149 15.6898 2.92969C15.6898 4.3663 15.7158 5.79605 15.7623 7.21741H2.92969C1.31149 7.21741 0 8.5289 0 10.1471C0 23.2742 3.43094 35.659 9.66034 45.0211C15.818 54.2763 24.0204 59.5848 32.8812 60.1013C34.89 62.2871 37.0132 64.0694 39.225 65.4289V78.45H34.3102C28.3684 78.45 23.5352 83.284 23.5352 89.225V94.1399H23.3269C21.7087 94.1399 20.3972 95.4521 20.3972 97.0695C20.3972 98.6877 21.7087 99.9992 23.3269 99.9992H76.6731C78.2913 99.9992 79.6028 98.6877 79.6028 97.0695C79.6028 95.4521 78.2913 94.1399 76.6731 94.1399H76.4648V89.225C76.4648 83.284 71.6316 78.45 65.6898 78.45H60.775V65.4289C62.9868 64.0701 65.1108 62.2871 67.1196 60.1013C75.9796 59.5848 84.182 54.2763 90.3404 45.0211C96.5698 35.659 100 23.2742 100 10.1471C100 8.5289 98.6885 7.21741 97.0703 7.21741ZM14.5386 41.7755C9.40018 34.0538 6.38123 23.954 5.92117 13.0768H16.0896C17.1463 26.4481 20.285 38.8077 25.1907 48.6183C25.972 50.1808 26.7891 51.6571 27.6367 53.0472C22.7638 51.207 18.2541 47.3602 14.5386 41.7755ZM70.6055 89.225V94.1406H29.3945V89.225C29.3945 86.515 31.5994 84.3094 34.3102 84.3094H65.6898C68.4006 84.3094 70.6055 86.515 70.6055 89.225ZM54.9156 78.45H45.0844V67.9749C46.6949 68.399 48.336 68.6195 50 68.6195C51.664 68.6195 53.3051 68.399 54.9156 67.9749V78.45ZM56.7299 61.0046C56.5979 61.0588 56.4713 61.1244 56.3499 61.1969C54.2793 62.2269 52.1515 62.7602 50 62.7602C47.8493 62.7602 45.7222 62.2269 43.6523 61.1984C43.5295 61.1244 43.4021 61.0588 43.2686 61.0031C40.9714 59.7885 38.7489 57.9544 36.647 55.5443C36.5364 55.3864 36.412 55.2406 36.274 55.1079C34.1873 52.6306 32.2243 49.5834 30.4314 45.9976C25.0473 35.2303 21.9376 21.0724 21.5836 5.85938H78.4164C78.0617 21.0724 74.9519 35.231 69.5686 45.9976C67.7757 49.5834 65.8127 52.6306 63.7268 55.1079C63.588 55.2406 63.4621 55.3871 63.3522 55.545C61.2503 57.9559 59.0271 59.7893 56.7299 61.0046ZM85.4614 41.7755C81.7459 47.3602 77.2362 51.207 72.3633 53.0472C73.2109 51.6571 74.028 50.1808 74.8093 48.6183C79.715 38.8077 82.8529 26.4481 83.9104 13.0768H94.0788C93.6188 23.954 90.5998 34.0538 85.4614 41.7755Z" fill="white"/>
</g>
<defs>
<clipPath id="clip0_84_444">
<rect width="100" height="100" fill="white"/>
</clipPath>
</defs>
</svg>
