<svg width="100" height="100" viewBox="0 0 100 100" fill="none" xmlns="http://www.w3.org/2000/svg">
<g clip-path="url(#clip0_84_406)">
<path d="M6.59375 9.37506V90.6251C6.59375 92.3511 7.99297 93.7501 9.71875 93.7501H31.5938V100H9.71875C4.54102 100 0.34375 95.8028 0.34375 90.6251V9.37506C0.34375 4.19732 4.54102 5.40425e-05 9.71875 5.40425e-05H59.7188C60.5494 -0.00482877 61.3478 0.321343 61.9375 0.906304L80.6875 19.6563C81.2725 20.246 81.5986 21.0444 81.5938 21.8751V34.3751H75.3438V25.0001L56.5938 6.25006H9.71875C7.99277 6.25006 6.59375 7.64908 6.59375 9.37506Z" fill="white"/>
<path d="M40.9687 50H28.4687C25.017 50 22.2188 52.7982 22.2188 56.25V81.25H28.4687V71.875H40.9687V81.25H47.2187V56.25C47.2187 52.7982 44.4205 50 40.9687 50ZM40.9687 65.625H28.4687V56.25H40.9687V65.625Z" fill="white"/>
<path d="M65.9688 50H53.4688C51.7428 50 50.3438 51.399 50.3438 53.125V81.25H56.5938V71.875H65.9688C69.4205 71.875 72.2188 69.0768 72.2188 65.625V56.25C72.2188 52.7982 69.4205 50 65.9688 50ZM65.9688 65.625H56.5938V56.25H65.9688V65.625Z" fill="white"/>
<path d="M88.9063 62.7188L96.3125 55.3437L91.875 50.9063L81.5938 61.2188V50H75.3438V81.25H81.5938V70.0313L84.4688 67.1875L94.7812 80.0938L99.6562 76.1875L88.9063 62.7188Z" fill="white"/>
</g>
<defs>
<clipPath id="clip0_84_406">
<rect width="100" height="100" fill="white"/>
</clipPath>
</defs>
</svg>
