<svg width="24" height="24" viewBox="0 0 24 24" fill="none" xmlns="http://www.w3.org/2000/svg">
<g clip-path="url(#clip0_84_1161)">
<path d="M0.383613 17.9031L1.16977 18.6947C1.41718 18.9419 1.74636 19.0781 2.09816 19.0781C2.44978 19.0781 2.77934 18.9419 3.02676 18.6947L11.9946 9.72645L20.9729 18.7047C21.2199 18.9519 21.5494 19.0879 21.9011 19.0879C22.2527 19.0879 22.5824 18.9519 22.8296 18.7047L23.616 17.9179C24.128 17.4063 24.128 16.5729 23.616 16.0613L12.9263 5.33324C12.6793 5.08622 12.3501 4.91217 11.9954 4.91217L11.9913 4.91217C11.6395 4.91217 11.3103 5.08641 11.0633 5.33324L0.383613 16.0323C0.136196 16.2793 0.000388883 16.6184 -1.8515e-07 16.97C-1.54394e-07 17.3218 0.136196 17.6563 0.383613 17.9031Z" fill="#D2D2D2"/>
</g>
<defs>
<clipPath id="clip0_84_1161">
<rect width="24" height="24" fill="white" transform="translate(24 24) rotate(180)"/>
</clipPath>
</defs>
</svg>
