<svg width="24" height="24" viewBox="0 0 24 24" fill="none" xmlns="http://www.w3.org/2000/svg">
<path d="M23.6164 6.09666L22.8302 5.30504C22.5828 5.05782 22.2536 4.92162 21.9018 4.92162C21.5502 4.92162 21.2207 5.05782 20.9732 5.30504L12.0054 14.2733L3.02715 5.29509C2.78012 5.04787 2.45056 4.91187 2.09894 4.91187C1.74733 4.91187 1.41757 5.04787 1.17035 5.29509L0.384003 6.08183C-0.128001 6.59344 -0.128001 7.42681 0.384003 7.93843L11.0737 18.6665C11.3207 18.9135 11.6499 19.0876 12.0046 19.0876H12.0087C12.3605 19.0876 12.6897 18.9133 12.9367 18.6665L23.6164 7.9675C23.8638 7.72047 23.9996 7.38135 24 7.02974C24 6.67793 23.8638 6.34349 23.6164 6.09666Z" fill="#55B570"/>
</svg>
